#Comment line ignore any data following # character 
#Hierarchical Translation and Rotation (.htr) file 
[Header]	
#Header keywords are followed by a single value 
FileType HTR		#Single word string
DataType HTRS		#Translation followed by rotation and scale data
FileVersion 1		#integer
NumSegments 64		#integer
NumFrames 3		#integer
DataFrameRate 30		#integer, data frame rate in this file
EulerRotationOrder ZYX
CalibrationUnits mm
RotationUnits Degrees
GlobalAxisofGravity Y
BoneLengthAxis Y
ScaleFactor 1.00
[SegmentNames&Hierarchy]
#CHILD	PARENT
Pinger_Root GLOBAL
Pelvis Pinger_Root
L_Hip Pelvis
R_Hip Pelvis
Rear_Leg01 Pelvis
Spine1 Pelvis
L_Leg01 L_Hip
L_Leg02 L_Leg01
L_Leg03 L_Leg02
L_Foot L_Leg03
L_Toe1_01 L_Foot
L_Toe2_01 L_Foot
L_Toe3_01 L_Foot
planeAlignerLeft L_Foot
L_Toe1_02 L_Toe1_01
L_Toe1_03 L_Toe1_02
L_Toe2_02 L_Toe2_01
L_Toe2_03 L_Toe2_02
L_Toe3_02 L_Toe3_01
L_Toe3_03 L_Toe3_02
planeLockWeightLeft planeAlignerLeft
R_Leg01 R_Hip
R_Leg02 R_Leg01
R_Leg03 R_Leg02
R_Foot R_Leg03
planeAlignerRight R_Foot
R_Toe1_01 R_Foot
R_Toe2_01 R_Foot
R_Toe3_01 R_Foot
planeLockWeightRight planeAlignerRight
R_Toe1_02 R_Toe1_01
R_Toe1_03 R_Toe1_02
R_Toe2_02 R_Toe2_01
R_Toe2_03 R_Toe2_02
R_Toe3_02 R_Toe3_01
R_Toe3_03 R_Toe3_02
Rear_Leg02 Rear_Leg01
Rear_Leg03 Rear_Leg02
Rear_Leg04 Rear_Leg03
Rear_Foot Rear_Leg04
planeAlignerCenter Rear_Foot
Rear_Toe1_01 Rear_Foot
Rear_Toe2_01 Rear_Foot
Rear_Toe3_01 Rear_Foot
planeLockWeightCenter planeAlignerCenter
Rear_Toe1_02 Rear_Toe1_01
Rear_Toe1_03 Rear_Toe1_02
Rear_Toe2_02 Rear_Toe2_01
Rear_Toe2_03 Rear_Toe2_02
Rear_Toe3_02 Rear_Toe3_01
Rear_Toe3_03 Rear_Toe3_02
Back_Bone Spine1
Head Spine1
Motor_Bone Back_Bone
Ping_Mechanism Back_Bone
BN_LookIK Head
bottomMouth Head
L_Mouth01 Head
L_mouthFront Head
mouthGun Head
R_Mouth01 Head
R_mouthFront Head
TopMouth Head
weapon_bone Head
[BasePosition]
#SegmentName Tx, Ty, Tz, Rx, Ry, Rz, BoneLength
Pinger_Root 0.000000 0.000000 0.000000 -90.000000 0.000000 0.000000 10.000000 
Pelvis 0.000000 0.000000 0.000000 0.000000 0.000000 0.000000 10.000000 
L_Hip 0.000000 0.000000 0.000000 0.000000 0.000000 0.000000 10.000000 
R_Hip 0.000000 0.000000 0.000000 0.000000 0.000000 0.000000 10.000000 
Rear_Leg01 0.000000 0.000000 0.000000 0.000000 0.000000 0.000000 10.000000 
Spine1 0.000000 0.000000 0.000000 0.000000 0.000000 0.000000 10.000000 
L_Leg01 0.000000 0.000000 0.000000 0.000000 0.000000 0.000000 10.000000 
L_Leg02 0.000000 0.000000 0.000000 0.000000 0.000000 0.000000 10.000000 
L_Leg03 0.000000 0.000000 0.000000 0.000000 0.000000 0.000000 10.000000 
L_Foot 0.000000 0.000000 0.000000 0.000000 0.000000 0.000000 10.000000 
L_Toe1_01 0.000000 0.000000 0.000000 0.000000 0.000000 0.000000 10.000000 
L_Toe2_01 0.000000 0.000000 0.000000 0.000000 0.000000 0.000000 10.000000 
L_Toe3_01 0.000000 0.000000 0.000000 0.000000 0.000000 0.000000 10.000000 
planeAlignerLeft 0.000000 0.000000 0.000000 0.000000 0.000000 0.000000 10.000000 
L_Toe1_02 0.000000 0.000000 0.000000 0.000000 0.000000 0.000000 10.000000 
L_Toe1_03 0.000000 0.000000 0.000000 0.000000 0.000000 0.000000 10.000000 
L_Toe2_02 0.000000 0.000000 0.000000 0.000000 0.000000 0.000000 10.000000 
L_Toe2_03 0.000000 0.000000 0.000000 0.000000 0.000000 0.000000 10.000000 
L_Toe3_02 0.000000 0.000000 0.000000 0.000000 0.000000 0.000000 10.000000 
L_Toe3_03 0.000000 0.000000 0.000000 0.000000 0.000000 0.000000 10.000000 
planeLockWeightLeft 0.000000 0.000000 0.000000 0.000000 0.000000 0.000000 10.000000 
R_Leg01 0.000000 0.000000 0.000000 0.000000 0.000000 0.000000 10.000000 
R_Leg02 0.000000 0.000000 0.000000 0.000000 0.000000 0.000000 10.000000 
R_Leg03 0.000000 0.000000 0.000000 0.000000 0.000000 0.000000 10.000000 
R_Foot 0.000000 0.000000 0.000000 0.000000 0.000000 0.000000 10.000000 
planeAlignerRight 0.000000 0.000000 0.000000 0.000000 0.000000 0.000000 10.000000 
R_Toe1_01 0.000000 0.000000 0.000000 0.000000 0.000000 0.000000 10.000000 
R_Toe2_01 0.000000 0.000000 0.000000 0.000000 0.000000 0.000000 10.000000 
R_Toe3_01 0.000000 0.000000 0.000000 0.000000 0.000000 0.000000 10.000000 
planeLockWeightRight 0.000000 0.000000 0.000000 0.000000 0.000000 0.000000 10.000000 
R_Toe1_02 0.000000 0.000000 0.000000 0.000000 0.000000 0.000000 10.000000 
R_Toe1_03 0.000000 0.000000 0.000000 0.000000 0.000000 0.000000 10.000000 
R_Toe2_02 0.000000 0.000000 0.000000 0.000000 0.000000 0.000000 10.000000 
R_Toe2_03 0.000000 0.000000 0.000000 0.000000 0.000000 0.000000 10.000000 
R_Toe3_02 0.000000 0.000000 0.000000 0.000000 0.000000 0.000000 10.000000 
R_Toe3_03 0.000000 0.000000 0.000000 0.000000 0.000000 0.000000 10.000000 
Rear_Leg02 0.000000 0.000000 0.000000 0.000000 0.000000 0.000000 10.000000 
Rear_Leg03 0.000000 0.000000 0.000000 0.000000 0.000000 0.000000 10.000000 
Rear_Leg04 0.000000 0.000000 0.000000 0.000000 0.000000 0.000000 10.000000 
Rear_Foot 0.000000 0.000000 0.000000 0.000000 0.000000 0.000000 10.000000 
planeAlignerCenter 0.000000 0.000000 0.000000 0.000000 0.000000 0.000000 10.000000 
Rear_Toe1_01 0.000000 0.000000 0.000000 0.000000 0.000000 0.000000 10.000000 
Rear_Toe2_01 0.000000 0.000000 0.000000 0.000000 0.000000 0.000000 10.000000 
Rear_Toe3_01 0.000000 0.000000 0.000000 0.000000 0.000000 0.000000 10.000000 
planeLockWeightCenter 0.000000 0.000000 0.000000 0.000000 0.000000 0.000000 10.000000 
Rear_Toe1_02 0.000000 0.000000 0.000000 0.000000 0.000000 0.000000 10.000000 
Rear_Toe1_03 0.000000 0.000000 0.000000 0.000000 0.000000 0.000000 10.000000 
Rear_Toe2_02 0.000000 0.000000 0.000000 0.000000 0.000000 0.000000 10.000000 
Rear_Toe2_03 0.000000 0.000000 0.000000 0.000000 0.000000 0.000000 10.000000 
Rear_Toe3_02 0.000000 0.000000 0.000000 0.000000 0.000000 0.000000 10.000000 
Rear_Toe3_03 0.000000 0.000000 0.000000 0.000000 0.000000 0.000000 10.000000 
Back_Bone 0.000000 0.000000 0.000000 0.000000 0.000000 0.000000 10.000000 
Head 0.000000 0.000000 0.000000 0.000000 0.000000 0.000000 10.000000 
Motor_Bone 0.000000 0.000000 0.000000 0.000000 0.000000 0.000000 10.000000 
Ping_Mechanism 0.000000 0.000000 0.000000 0.000000 0.000000 0.000000 10.000000 
BN_LookIK 0.000000 0.000000 0.000000 0.000000 0.000000 0.000000 10.000000 
bottomMouth 0.000000 0.000000 0.000000 0.000000 0.000000 0.000000 10.000000 
L_Mouth01 0.000000 0.000000 0.000000 0.000000 0.000000 0.000000 10.000000 
L_mouthFront 0.000000 0.000000 0.000000 0.000000 0.000000 0.000000 10.000000 
mouthGun 0.000000 0.000000 0.000000 0.000000 0.000000 0.000000 10.000000 
R_Mouth01 0.000000 0.000000 0.000000 0.000000 0.000000 0.000000 10.000000 
R_mouthFront 0.000000 0.000000 0.000000 0.000000 0.000000 0.000000 10.000000 
TopMouth 0.000000 0.000000 0.000000 0.000000 0.000000 0.000000 10.000000 
weapon_bone 0.000000 0.000000 0.000000 0.000000 0.000000 0.000000 10.000000 
#Beginning of Data. Separated by tabs
#Fr	Tx	Ty	Tz	Rx	Ry	Rz	SF
[Pinger_Root]
58 0.000000 0.000000 0.000000 -0.000075 -0.000000 -0.000020 0.000000
59 0.000000 0.000000 0.000000 -0.000075 -0.000000 -0.000020 0.000000
60 0.000000 0.000000 0.000000 -0.000075 -0.000000 -0.000020 0.000000
[Pelvis]
58 465.087219 1309.036133 4886.386230 -57.379776 -69.044746 56.674442 5080.024902
59 449.501678 1320.485840 4890.791992 -56.490963 -71.869644 56.744781 5085.821289
60 433.689697 1332.011597 4898.700195 -53.975159 -74.942848 55.201599 5095.057129
[L_Hip]
58 5.766392 125.831482 872.656799 -178.253311 -81.787712 87.381248 881.701050
59 5.766392 125.831482 872.656799 -178.253342 -81.787712 87.381294 881.701050
60 5.766392 125.831482 872.656799 -178.253311 -81.787712 87.381248 881.701050
[R_Hip]
58 5.765438 125.836372 -872.654907 -1.735988 81.785530 87.375496 881.699829
59 5.765438 125.836372 -872.654907 -1.735790 81.785606 87.375465 881.699829
60 5.765438 125.836372 -872.654907 -1.735577 81.785515 87.375290 881.699829
[Rear_Leg01]
58 -192.298416 -925.602966 -0.001907 152.135300 21.013149 -155.221222 945.367432
59 -192.298416 -925.602966 -0.001907 153.269135 20.554749 -149.822266 945.367432
60 -192.298416 -925.602966 -0.001907 154.107025 19.810879 -144.666092 945.367432
[Spine1]
58 290.604584 5.007505 0.000477 0.835501 -11.242145 1.122140 290.647736
59 290.604584 5.007505 0.000477 0.805091 -9.594867 3.086135 290.647736
60 290.604584 5.007505 0.000477 0.741977 -8.076548 5.469795 290.647736
[L_Leg01]
58 761.932007 -0.002384 -0.069261 106.073158 -28.194447 -93.251396 761.932068
59 761.932007 -0.002384 -0.069261 107.591660 -24.581560 -92.320953 761.932068
60 761.932007 -0.002384 -0.069261 109.386604 -21.022295 -91.737305 761.932068
[L_Leg02]
58 1441.140503 -0.000954 -0.000715 -1.568233 0.468146 -81.605263 1441.140503
59 1441.140503 -0.000954 -0.000715 -1.579812 0.424195 -80.801010 1441.140503
60 1441.140503 -0.000954 -0.000715 -1.580482 0.397925 -80.178513 1441.140503
[L_Leg03]
58 1686.963989 -0.000715 -0.000954 0.029429 -0.010110 101.942833 1686.963989
59 1686.963989 -0.000715 -0.000954 0.026230 -0.006615 103.456367 1686.963989
60 1686.963989 -0.000715 -0.000954 0.019238 -0.005949 104.366943 1686.963989
[L_Foot]
58 3041.570068 -30.715107 11.297464 4.885381 7.143812 71.364471 3041.746094
59 3041.570068 -30.715107 11.297464 5.074102 7.732172 70.105537 3041.746094
60 3041.570068 -30.715107 11.297464 5.277480 8.441530 69.143539 3041.746094
[L_Toe1_01]
58 -188.216690 -224.732346 -21.137953 103.595840 -3.149946 177.994278 293.899567
59 -188.216690 -224.732346 -21.137953 103.557404 -3.364820 178.970428 293.899567
60 -188.216690 -224.732346 -21.137953 103.531548 -3.513732 179.582062 293.899567
[L_Toe2_01]
58 200.746536 -219.926590 148.838394 -88.528419 -22.036810 -48.735657 332.896027
59 200.746536 -219.926590 148.838394 -88.189102 -21.997519 -49.594131 332.896027
60 200.746536 -219.926590 148.838394 -87.978699 -21.994627 -50.105476 332.896027
[L_Toe3_01]
58 188.832520 -219.859131 -191.078659 -115.978729 10.583091 -62.630875 347.140900
59 188.832520 -219.859131 -191.078659 -116.034386 10.119173 -63.535275 347.140900
60 188.832520 -219.859131 -191.078659 -116.060341 9.852431 -64.065948 347.140900
[planeAlignerLeft]
58 0.812531 -811.448792 -0.314951 0.000000 -90.000000 -90.001900 811.449280
59 0.812531 -811.448792 -0.314951 0.000000 -90.000000 -90.001900 811.449280
60 0.812531 -811.448792 -0.314951 0.000000 -90.000000 -90.001900 811.449280
[L_Toe1_02]
58 413.761139 0.000477 0.000000 0.001407 -23.091465 0.001407 413.761139
59 413.761139 0.000477 0.000000 0.001406 -23.205530 0.001406 413.761139
60 413.761139 0.000477 0.000000 0.001405 -23.319603 0.001405 413.761139
[L_Toe1_03]
58 464.317322 0.000358 -0.000089 0.011356 78.135681 0.011356 464.317322
59 464.317322 0.000358 -0.000089 0.010665 77.364883 0.010665 464.317322
60 464.317322 0.000358 -0.000089 0.010201 76.786560 0.010201 464.317322
[L_Toe2_02]
58 342.235809 -0.000477 0.000238 0.001196 -67.810150 0.001196 342.235809
59 342.235809 -0.000477 0.000238 0.001197 -67.179680 0.001197 342.235809
60 342.235809 -0.000477 0.000238 0.001198 -66.833786 0.001198 342.235809
[L_Toe2_03]
58 420.210846 -0.000715 0.000000 0.008901 74.846283 0.008901 420.210846
59 420.210846 -0.000715 0.000000 0.008241 73.624428 0.008241 420.210846
60 420.210846 -0.000715 0.000000 0.004569 72.922943 0.003390 420.210846
[L_Toe3_02]
58 329.270111 0.000954 0.000000 0.001180 -77.684113 0.001180 329.270111
59 329.270111 0.000954 0.000000 0.001181 -77.323128 0.001181 329.270111
60 329.270111 0.000954 0.000000 0.001181 -76.962067 0.001181 329.270111
[L_Toe3_03]
58 439.137451 -0.001907 0.000954 -179.966232 88.145119 -179.962738 439.137451
59 439.137451 -0.001907 0.000954 0.000000 89.445740 0.003502 439.137451
60 439.137451 -0.001907 0.000954 0.000000 89.809227 0.003495 439.137451
[planeLockWeightLeft]
58 -0.000954 0.000238 -0.000305 -0.011826 -0.004376 0.005620 0.001029
59 -0.000954 0.000238 -0.000305 -0.011826 -0.004376 0.005620 0.001029
60 -0.000954 0.000238 -0.000305 -0.011826 -0.004376 0.005620 0.001029
[R_Leg01]
58 761.455627 -0.001907 -0.000358 93.069176 -17.213696 58.501083 761.455688
59 761.455627 -0.001907 -0.000358 92.224350 -9.412242 61.315102 761.455688
60 761.455627 -0.001907 -0.000358 91.485771 -0.432956 63.962299 761.455688
[R_Leg02]
58 1441.140625 0.000000 -0.000238 -0.101408 0.022157 -114.433548 1441.140625
59 1441.140625 0.000000 -0.000238 0.114136 -0.006416 -107.119110 1441.140625
60 1441.140625 0.000000 -0.000238 0.502018 -0.057315 -98.249504 1441.140625
[R_Leg03]
58 1686.963989 0.000954 0.001431 0.002308 -0.000426 110.893715 1686.963989
59 1686.963989 0.000954 0.001431 0.002308 -0.000426 110.923752 1686.963989
60 1686.963989 0.000954 0.001431 0.002310 -0.000419 110.545059 1686.963989
[R_Foot]
58 3041.560059 -30.531288 -11.204481 51.369057 -67.728104 41.706608 3041.734131
59 3041.560059 -30.531288 -11.204481 51.654053 -68.388062 39.619404 3041.734131
60 3041.560059 -30.531288 -11.204481 52.089149 -68.980133 36.975967 3041.734131
[planeAlignerRight]
58 -0.635147 -812.270569 -0.364304 0.000000 -89.960434 -90.005180 812.270874
59 -0.635147 -812.270569 -0.364304 0.000000 -89.960434 -90.005180 812.270874
60 -0.635147 -812.270569 -0.364304 0.000000 -89.960434 -90.005180 812.270874
[R_Toe1_01]
58 -188.383347 -224.864899 21.052242 91.063660 -2.160501 -151.280014 294.101532
59 -188.383347 -224.864899 21.052242 91.082245 -1.884963 -151.975922 294.101532
60 -188.383347 -224.864899 21.052242 91.074677 -1.450911 -152.924332 294.101532
[R_Toe2_01]
58 200.637817 -220.002121 -148.787384 -103.170128 7.190182 -53.390324 332.857574
59 200.637817 -220.002121 -148.787384 -103.153534 7.516777 -53.086021 332.857574
60 200.637817 -220.002121 -148.787384 -103.154221 7.977716 -52.683502 332.857574
[R_Toe3_01]
58 188.606735 -220.092957 191.126343 -69.574745 -18.369835 -58.243099 347.192566
59 188.606735 -220.092957 191.126343 -69.822632 -18.091347 -57.726948 347.192566
60 188.606735 -220.092957 191.126343 -70.192085 -17.660803 -56.995594 347.192566
[planeLockWeightRight]
58 -0.000477 0.000000 0.000000 -0.011823 -0.004379 -0.000027 0.000477
59 -0.000477 0.000000 0.000000 -0.011823 -0.004379 -0.000027 0.000477
60 -0.000477 0.000000 0.000000 -0.011823 -0.004379 -0.000027 0.000477
[R_Toe1_02]
58 413.762085 0.000477 -0.000119 0.001385 -25.889093 0.001385 413.762085
59 413.762085 0.000477 -0.000119 0.001385 -25.870827 0.001385 413.762085
60 413.762085 0.000477 -0.000119 0.001387 -25.635084 0.001387 413.762085
[R_Toe1_03]
58 464.317810 0.000000 0.001088 0.004007 55.936607 0.004007 464.317810
59 464.317810 0.000000 0.001088 0.004265 58.052567 0.004265 464.317810
60 464.317810 0.000000 0.001088 0.004608 60.469570 0.004608 464.317810
[R_Toe2_02]
58 342.234741 -0.000954 0.000238 -0.002337 -77.422897 -0.002337 342.234741
59 342.234741 -0.000954 0.000238 -0.002337 -77.344246 -0.002337 342.234741
60 342.234741 -0.000954 0.000238 -0.002337 -77.265617 -0.002337 342.234741
[R_Toe2_03]
58 420.210846 0.000715 -0.000268 -179.992966 77.523956 -179.996475 420.210846
59 420.210846 0.000715 -0.000268 -179.992783 77.936226 -179.996292 420.210846
60 420.210846 0.000715 -0.000268 -179.992447 78.608986 -179.995956 420.210846
[R_Toe3_02]
58 329.270355 -0.000477 -0.000954 0.001179 -79.126488 0.001179 329.270355
59 329.270355 -0.000477 -0.000954 0.001179 -79.166496 0.001179 329.270355
60 329.270355 -0.000477 -0.000954 0.001179 -79.206413 0.001179 329.270355
[R_Toe3_03]
58 439.137939 0.000238 0.001431 -179.991638 83.491234 -179.988129 439.137939
59 439.137939 0.000238 0.001431 -179.991913 83.311058 -179.988403 439.137939
60 439.137939 0.000238 0.001431 -179.992172 83.130821 -179.988663 439.137939
[Rear_Leg02]
58 1162.777710 -0.029802 0.005960 0.013738 2.734194 -69.238533 1162.777710
59 1162.777710 -0.029802 0.005960 -0.017672 5.611283 -65.956604 1162.777710
60 1162.777710 -0.029802 0.005960 -0.095557 6.101130 -63.922390 1162.777710
[Rear_Leg03]
58 607.192505 -0.013351 -0.073195 0.006547 -0.001873 60.142899 607.192505
59 607.192505 -0.013351 -0.073195 0.006546 -0.001880 60.259056 607.192505
60 607.192505 -0.013351 -0.073195 0.006541 -0.001896 60.550911 607.192505
[Rear_Leg04]
58 995.874512 -0.020504 -0.011921 -0.039364 -0.017943 50.263546 995.874573
59 995.874512 -0.020504 -0.011921 -0.039415 -0.017832 50.586071 995.874573
60 995.874512 -0.020504 -0.011921 -0.039497 -0.017649 51.117252 995.874573
[Rear_Foot]
58 3096.176270 -0.067472 -0.041425 168.837463 76.748444 -11.906542 3096.176270
59 3096.176270 -0.067472 -0.041425 156.412506 76.731316 -24.651897 3096.176270
60 3096.176270 -0.067472 -0.041425 154.531921 76.533119 -26.923567 3096.176270
[planeAlignerCenter]
58 0.350077 0.966311 -838.790894 0.000009 0.000003 -179.999985 838.791565
59 0.350077 0.966311 -838.790894 0.000009 0.000003 -179.999985 838.791565
60 0.350077 0.966311 -838.790894 0.000009 0.000003 -179.999985 838.791565
[Rear_Toe1_01]
58 0.653352 83.966492 -371.173737 1.972040 12.509543 96.464615 380.553192
59 0.653352 83.966492 -371.173737 1.922624 12.496064 96.288979 380.553192
60 0.653352 83.966492 -371.173737 1.873251 12.482438 96.113380 380.553192
[Rear_Toe2_01]
58 178.200760 -294.826019 -362.060547 -3.173182 39.298454 -80.168320 499.765686
59 178.200760 -294.826019 -362.060547 -3.080551 39.325397 -79.927925 499.765686
60 178.200760 -294.826019 -362.060547 -2.987737 39.352028 -79.687355 499.765686
[Rear_Toe3_01]
58 -153.359680 -308.780914 -362.060852 -2.859282 39.913948 -118.345825 499.952881
59 -153.359680 -308.780914 -362.060852 -2.790533 39.924129 -118.136673 499.952881
60 -153.359680 -308.780914 -362.060852 -2.721738 39.934116 -117.927521 499.952881
[planeLockWeightCenter]
58 -0.000062 0.000238 0.000000 -0.011814 -0.004373 -0.000015 0.000246
59 -0.000062 0.000238 0.000000 -0.011814 -0.004373 -0.000015 0.000246
60 -0.000062 0.000238 0.000000 -0.011814 -0.004373 -0.000015 0.000246
[Rear_Toe1_02]
58 379.707825 0.194073 0.000477 -0.002644 -32.916504 -0.002644 379.707855
59 379.707825 0.194073 0.000477 -0.002645 -32.909477 -0.002645 379.707855
60 379.707825 0.194073 0.000477 -0.002645 -32.902462 -0.002645 379.707855
[Rear_Toe1_03]
58 500.129700 0.165701 0.000119 -0.073749 89.127777 -0.077246 500.129761
59 500.129700 0.165701 0.000119 -0.086060 89.249573 -0.089557 500.129761
60 500.129700 0.165701 0.000119 -0.103170 89.372551 -0.106666 500.129761
[Rear_Toe2_02]
58 340.494507 0.000238 -0.000954 0.001174 -86.302872 0.001174 340.494507
59 340.494507 0.000238 -0.000954 0.001174 -86.243446 0.001174 340.494507
60 340.494507 0.000238 -0.000954 0.001174 -86.183617 0.001174 340.494507
[Rear_Toe2_03]
58 433.103577 0.000000 0.000238 -179.999588 77.797729 179.998199 433.103546
59 433.103577 0.000000 0.000238 179.999741 77.963432 179.997650 433.103546
60 433.103577 0.000000 0.000238 179.999023 78.129128 179.997070 433.103546
[Rear_Toe3_02]
58 340.494141 -0.000358 -0.000477 0.001177 -80.890724 0.001177 340.494171
59 340.494141 -0.000358 -0.000477 0.001177 -80.983276 0.001177 340.494171
60 340.494141 -0.000358 -0.000477 0.001177 -81.075882 0.001177 340.494171
[Rear_Toe3_03]
58 433.103577 0.001431 -0.000238 -0.111084 89.396713 -0.107587 433.103546
59 433.103577 0.001431 -0.000238 0.000000 89.585510 0.003493 433.103546
60 433.103577 0.001431 -0.000238 0.000000 89.774452 0.003495 433.103546
[Back_Bone]
58 1312.175781 -701.934692 0.000954 -0.543453 3.184506 -85.495560 1488.125488
59 1312.175781 -701.934692 0.000954 -0.773791 3.171311 -85.364204 1488.125488
60 1312.175781 -701.934692 0.000954 -1.004159 3.158645 -85.232811 1488.125488
[Head]
58 1406.159424 809.709290 0.001431 0.099984 10.230263 24.955044 1622.625488
59 1406.159424 809.709290 0.001431 -0.170942 9.522439 24.844929 1622.625488
60 1406.159424 809.709290 0.001431 -0.439964 8.814075 24.738403 1622.625488
[Motor_Bone]
58 1158.364380 -417.834747 0.000477 -1.933941 -0.433295 -106.415138 1231.419434
59 1158.364380 -417.834747 0.000477 -1.818770 0.000068 -105.985336 1231.419434
60 1158.364380 -417.834747 0.000477 -1.667545 1.559917 -104.426277 1231.419434
[Ping_Mechanism]
58 1297.388672 -448.776245 64.738457 0.000103 -0.000053 82.120995 1374.339355
59 1285.273682 -448.510101 57.013561 0.000103 -0.000053 82.120995 1362.475830
60 1271.114380 -447.322998 49.725700 0.000103 -0.000053 82.120995 1348.444336
[BN_LookIK]
58 193.241119 1380.371704 -0.002861 0.000000 89.965736 -31.038179 1393.832153
59 193.241119 1380.371704 -0.002861 0.000000 89.965736 -31.038179 1393.832153
60 193.241119 1380.371704 -0.002861 0.000000 89.965736 -31.038179 1393.832153
[bottomMouth]
58 -435.092926 615.759399 -0.000954 -0.000022 0.000016 73.527184 753.966492
59 -435.092926 615.759399 -0.000954 -0.000022 0.000016 73.527184 753.966492
60 -435.092926 615.759399 -0.000954 -0.000022 0.000016 73.527184 753.966492
[L_Mouth01]
58 554.440979 7.658243 838.222046 150.204178 23.759130 109.605339 1005.027161
59 554.440979 7.658243 838.222046 150.204178 23.759130 109.605339 1005.027161
60 554.440979 7.658243 838.222046 150.204178 23.759130 109.605339 1005.027161
[L_mouthFront]
58 551.629089 934.514771 339.150421 0.000081 2.804060 79.119301 1136.941284
59 551.629089 934.514771 339.150421 0.000081 2.804060 79.119301 1136.941284
60 551.629089 934.514771 339.150421 0.000081 2.804060 79.119301 1136.941284
[mouthGun]
58 55.332661 1627.420898 0.000000 0.000023 0.000009 -11.038128 1628.361328
59 55.332661 1627.420898 0.000000 0.000023 0.000009 -11.038128 1628.361328
60 55.332661 1627.420898 0.000000 0.000023 0.000009 -11.038128 1628.361328
[R_Mouth01]
58 554.442383 7.659197 -838.223938 29.795891 -23.759109 109.605331 1005.029541
59 554.442383 7.659197 -838.223938 29.795891 -23.759109 109.605331 1005.029541
60 554.442383 7.659197 -838.223938 29.795891 -23.759109 109.605331 1005.029541
[R_mouthFront]
58 551.629089 934.514282 -339.151367 0.000029 -2.803930 79.119133 1136.941162
59 551.629089 934.514282 -339.151367 0.000029 -2.803930 79.119133 1136.941162
60 551.629089 934.514282 -339.151367 0.000029 -2.803930 79.119133 1136.941162
[TopMouth]
58 461.269867 -56.106091 -0.008583 -0.000059 -0.000268 92.025169 464.669525
59 461.269867 -56.106091 -0.008583 -0.000059 -0.000268 92.025169 464.669525
60 461.269867 -56.106091 -0.008583 -0.000059 -0.000268 92.025169 464.669525
[weapon_bone]
58 -987.239868 1448.372803 0.001431 0.000000 89.965736 -31.038221 1752.833740
59 -987.239868 1448.372803 0.001431 0.000000 89.965736 -31.038221 1752.833740
60 -987.239868 1448.372803 0.001431 0.000000 89.965736 -31.038221 1752.833740
